# xmcd
#
# Track frame offsets: 
#        150
#        11021
#        21984
#        31601
#        43278
#        56816
#        68192
#        78018
#        87865
#        97817
#        106025
#        117690
#        128907
#        139559
#        151395
#        161408
#        173020
#        183577
#        193720
#        205215
#        214276
#
# Disc length: 3014 seconds
#
# Revision: 0
# Processed by: cddbd v1.4PL0 Copyright (c) Steve Scherf et al.
# Submitted via: ExactAudioCopy v0.95a2
#
DISCID=1a0bc415
DTITLE=Charlie Walker - Greatest Honky Tonk Hits
DYEAR=1900
DGENRE=Country
TTITLE0=Pick Me Up on Your Way Down
TTITLE1=I'll Catch You When You Fall
TTITLE2=When My Conscience Hurts the Most
TTITLE3=Who Will Buy the Wine
TTITLE4=Facing the Wall
TTITLE5=Good Deal Lucille
TTITLE6=Close all the Honky Tonks
TTITLE7=Wild as a Wildcat
TTITLE8=He's a Jolly Good Fellow
TTITLE9=The Man in the Little White Suit
TTITLE10=Daddy's Coming Home
TTITLE11=I'm Gonna Hang Up My Gloves
TTITLE12=The Town that Never Sleeps
TTITLE13=Don't Squeeze My Sharmon
TTITLE14=I Wouldn't Take Her to a Dogfight
TTITLE15=Truck Drivin' Cat with Nine Wives
TTITLE16=San Diego
TTITLE17=Honky-Tonk Season
TTITLE18=Honky Tonk Women
TTITLE19=Let's Go Fishin' Boys (the Girls are Bitin')
TTITLE20=My Baby Used to Be That Way
EXTD=
EXTT0=
EXTT1=
EXTT2=
EXTT3=
EXTT4=
EXTT5=
EXTT6=
EXTT7=
EXTT8=
EXTT9=
EXTT10=
EXTT11=
EXTT12=
EXTT13=
EXTT14=
EXTT15=
EXTT16=
EXTT17=
EXTT18=
EXTT19=
EXTT20=
PLAYORDER=
